<?xml version="1.0" standalone="no"?>
<!DOCTYPE svg PUBLIC "-//W3C//DTD SVG 20010904//EN"
 "http://www.w3.org/TR/2001/REC-SVG-20010904/DTD/svg10.dtd">
<svg version="1.0" xmlns="http://www.w3.org/2000/svg"
 width="522.000000pt" height="522.000000pt" viewBox="0 0 522.000000 522.000000"
 preserveAspectRatio="xMidYMid meet">
<metadata>
Created by potrace 1.14, written by Peter Selinger 2001-2017
</metadata>
<g transform="translate(0.000000,522.000000) scale(0.100000,-0.100000)"
fill="#000000" stroke="none">
<path d="M2506 4930 c-60 -32 -307 -173 -421 -241 -44 -26 -138 -82 -210 -124
-71 -42 -176 -104 -233 -138 -56 -34 -155 -93 -220 -132 -64 -38 -199 -120
-300 -182 -101 -62 -187 -113 -192 -113 -4 0 -10 -4 -12 -8 -2 -7 -166 -108
-218 -135 -100 -51 -147 -87 -167 -127 l-23 -44 0 -1095 c0 -1286 -15 -1145
132 -1230 51 -30 150 -89 220 -133 70 -43 140 -86 157 -95 16 -10 127 -76 246
-148 119 -71 231 -138 248 -149 18 -10 70 -41 117 -70 47 -28 94 -56 105 -63
11 -7 27 -15 35 -19 8 -5 38 -23 67 -41 29 -18 54 -33 57 -33 2 0 42 -23 88
-52 46 -28 135 -81 198 -118 63 -36 167 -97 231 -134 70 -40 133 -70 157 -73
54 -7 52 -9 552 288 96 57 191 113 211 124 33 19 316 185 349 206 108 66 355
209 361 209 4 0 9 3 11 8 1 4 116 74 253 156 332 198 314 186 336 228 18 36
19 69 19 1136 l0 1100 -23 43 c-17 33 -37 52 -78 74 -31 17 -73 41 -95 54 -21
14 -41 25 -44 26 -3 0 -16 8 -30 16 -41 27 -203 123 -220 132 -8 4 -27 15 -42
25 -14 9 -55 34 -90 55 -34 20 -70 42 -78 47 -62 40 -314 190 -320 190 -5 0
-10 4 -12 8 -1 4 -84 55 -183 114 -225 133 -219 129 -361 214 -66 39 -141 84
-169 99 -27 15 -99 57 -160 93 -138 82 -177 90 -249 52z m-143 -332 c-58 -97
-103 -186 -103 -205 0 -7 -4 -13 -10 -13 -5 0 -9 -3 -8 -7 1 -5 -15 -52 -36
-105 -21 -53 -39 -105 -40 -114 -4 -29 -23 -27 -70 5 -53 37 -191 107 -229
116 -26 7 -29 3 -72 -88 -25 -53 -58 -135 -74 -182 -16 -47 -31 -88 -34 -91
-4 -5 -96 35 -107 46 -5 5 -52 23 -176 68 l-72 25 32 22 c17 11 38 24 46 28 8
4 24 13 35 20 11 7 83 49 160 95 77 45 147 86 155 92 81 51 405 243 458 272
37 20 94 52 127 71 33 18 62 33 64 31 1 -1 -19 -40 -46 -86z m461 52 c37 -22
70 -40 71 -40 3 0 141 -81 282 -166 46 -27 98 -58 117 -69 137 -80 252 -151
254 -157 2 -5 7 -8 12 -8 4 0 52 -27 107 -60 54 -33 113 -67 131 -75 17 -9 32
-17 32 -20 0 -2 -28 -13 -62 -24 -35 -10 -114 -42 -176 -69 l-113 -51 -10 25
c-5 14 -9 28 -9 32 0 26 -122 306 -137 315 -12 7 -187 -81 -262 -131 -31 -20
-58 -26 -49 -11 2 3 -2 12 -8 20 -6 8 -17 34 -24 59 -7 25 -17 50 -20 55 -4 6
-13 28 -20 50 -29 90 -161 333 -195 357 -7 5 -7 8 0 8 6 0 41 -18 79 -40z
m-104 -215 c32 -60 71 -141 85 -180 15 -38 31 -79 35 -90 5 -11 17 -48 28 -82
l19 -62 -38 -28 c-21 -15 -88 -80 -150 -144 l-113 -115 -148 149 c-81 81 -148
154 -148 160 1 37 98 286 146 372 12 22 30 56 41 75 10 19 38 68 62 108 l44
73 40 -63 c21 -34 65 -112 97 -173z m590 -492 c29 -83 30 -94 17 -108 -9 -8
-20 -15 -26 -15 -6 0 -11 -4 -11 -8 0 -5 -11 -14 -25 -20 -24 -11 -177 -139
-183 -154 -11 -26 -17 4 -16 86 1 52 -4 127 -11 166 l-12 72 41 29 c22 15 68
46 101 68 l60 40 16 -32 c9 -18 31 -73 49 -124z m-1284 85 l95 -63 -6 -50
c-12 -88 -14 -108 -15 -198 l-2 -89 -31 29 c-17 15 -36 33 -42 39 -19 21 -144
114 -153 114 -5 0 -17 9 -26 19 -15 16 -16 25 -6 61 20 73 71 200 82 200 5 0
52 -28 104 -62z m-835 -103 c83 -13 132 -25 184 -45 11 -5 47 -18 80 -31 33
-12 93 -37 133 -55 79 -36 74 -27 58 -109 -2 -11 -7 -51 -11 -90 -4 -38 -9
-83 -11 -100 -2 -16 -4 -49 -5 -72 -1 -24 -6 -43 -10 -43 -4 0 -54 22 -111 49
-56 27 -157 70 -223 96 -66 26 -124 50 -130 54 -5 3 -14 7 -20 8 -10 2 -124
44 -155 56 -17 7 -117 36 -128 37 -29 4 -52 14 -52 24 0 19 345 240 360 231 4
-2 22 -7 41 -10z m2882 -11 c18 -9 34 -20 37 -23 3 -4 28 -21 55 -39 28 -17
55 -36 62 -42 7 -5 14 -10 17 -10 8 0 135 -90 141 -100 3 -5 -9 -11 -26 -15
-58 -13 -292 -92 -414 -139 -134 -53 -140 -55 -283 -121 -56 -27 -104 -46
-106 -44 -3 2 -7 40 -10 84 -6 79 -14 147 -22 195 -2 14 -6 43 -9 65 l-6 41
63 28 c136 60 291 113 357 122 19 2 37 7 40 9 10 11 74 4 104 -11z m-1722
-151 c47 -49 97 -104 112 -124 l28 -37 -56 -91 c-30 -51 -62 -108 -70 -128
-13 -30 -17 -34 -31 -23 -32 27 -71 143 -81 239 -11 108 -8 251 5 251 5 0 47
-39 93 -87z m565 56 c12 -54 6 -215 -11 -299 -9 -48 -39 -119 -59 -145 l-21
-26 -20 38 c-11 21 -43 77 -72 125 -29 47 -53 90 -53 96 0 12 221 244 227 239
2 -2 6 -15 9 -28z m-1013 -213 c147 -115 244 -220 327 -354 l32 -52 -32 -97
c-18 -54 -34 -106 -36 -117 -2 -10 -5 -20 -6 -21 -2 -2 -46 37 -98 86 -52 50
-145 123 -206 164 -61 41 -113 82 -116 92 -14 63 15 373 36 373 3 0 47 -33 99
-74z m1472 37 c4 -21 10 -49 12 -63 2 -14 6 -84 8 -157 l4 -132 -67 -43 c-37
-23 -71 -45 -77 -47 -5 -2 -12 -7 -15 -10 -3 -4 -18 -17 -34 -29 -43 -33 -167
-144 -190 -169 -22 -25 -42 -30 -43 -10 -1 6 -13 50 -28 97 -14 47 -29 95 -32
107 -5 20 50 117 103 183 76 94 316 310 345 310 4 0 10 -17 14 -37z m-2397
-163 l132 -44 1 -40 c7 -328 209 -755 463 -982 73 -64 223 -175 271 -199 66
-33 -37 -2 -177 53 -42 17 -212 103 -218 110 -3 4 -16 13 -30 20 -109 56 -264
204 -348 332 -87 133 -189 357 -208 457 -2 12 -9 34 -14 48 -5 14 -7 25 -5 25
2 0 1 10 -4 23 -15 38 -27 163 -22 231 0 10 7 16 14 14 6 -3 72 -24 145 -48z
m3376 -17 c-1 -32 -6 -78 -10 -103 -4 -25 -8 -49 -8 -55 -2 -9 -27 -121 -31
-135 -1 -3 -6 -16 -12 -30 -6 -14 -14 -40 -18 -57 -3 -18 -10 -33 -13 -33 -4
0 -13 -19 -20 -42 -20 -64 -94 -208 -148 -288 -63 -95 -191 -222 -290 -290
-99 -67 -287 -166 -354 -184 -3 -1 -36 -12 -75 -25 -98 -32 -95 -31 -95 -26 0
2 15 12 33 21 49 25 133 82 220 148 296 224 518 667 526 1047 1 21 8 28 44 40
23 8 44 14 47 15 3 0 12 4 20 7 57 24 171 55 181 51 3 -2 4 -29 3 -61z m-1663
-180 l41 -82 -22 -31 c-25 -36 -84 -139 -106 -189 -18 -40 -12 -47 -103 117
l-63 112 32 63 c18 34 51 93 73 130 l40 69 33 -54 c19 -29 52 -90 75 -135z
m1213 65 c-15 -113 -29 -182 -51 -248 -70 -216 -176 -393 -321 -535 -69 -67
-202 -172 -251 -196 -14 -8 -28 -16 -31 -19 -9 -9 -114 -58 -140 -65 -21 -6
-17 1 25 46 28 29 53 56 56 59 36 30 169 230 217 326 61 121 132 359 136 457
1 29 8 34 166 110 91 43 172 82 180 87 8 5 16 9 17 9 1 1 -1 -14 -3 -31z
m-2458 -62 l172 -84 7 -54 c10 -81 43 -204 80 -298 41 -108 106 -240 117 -240
4 0 8 -5 8 -11 0 -10 69 -116 92 -141 7 -7 35 -40 63 -73 27 -33 60 -70 73
-82 13 -14 18 -23 10 -23 -12 0 -35 12 -165 81 -123 65 -318 242 -402 364
-111 163 -196 360 -226 530 -10 54 -14 115 -7 115 4 0 84 -38 178 -84z m3054
-366 l0 -389 -57 -3 c-32 -2 -104 -2 -160 0 -117 4 -113 -3 -49 102 55 90 137
268 172 370 34 104 29 85 61 208 15 56 29 102 30 102 2 0 3 -175 3 -390z
m-3810 344 c0 -26 51 -193 92 -304 41 -109 128 -287 186 -377 l33 -53 -164 0
-164 0 0 375 c0 206 4 375 8 375 5 0 9 -7 9 -16z m2675 -255 c-34 -134 -148
-358 -235 -464 -43 -52 -135 -145 -143 -145 -8 0 -2 64 7 79 2 3 7 31 10 61 4
30 8 64 11 75 2 11 4 50 4 87 1 66 2 68 53 130 101 121 299 285 306 253 2 -7
-4 -42 -13 -76z m-1544 63 c13 -10 37 -24 53 -32 30 -16 204 -182 249 -239 22
-29 27 -45 28 -95 0 -75 6 -123 28 -231 20 -101 16 -101 -79 2 -106 116 -247
350 -273 453 -4 14 -15 55 -26 93 -11 37 -16 67 -12 67 5 0 19 -8 32 -18z
m580 -92 c13 -25 27 -47 30 -50 3 -3 14 -21 24 -40 22 -42 113 -178 125 -185
5 -3 20 9 34 27 25 34 156 246 156 254 0 3 7 16 17 30 l16 25 14 -33 c26 -61
51 -202 51 -294 0 -84 -17 -202 -36 -249 -56 -138 -127 -239 -206 -296 l-39
-29 -36 22 c-19 12 -49 38 -66 57 -16 19 -34 39 -40 46 -29 33 -88 146 -108
210 -24 74 -28 100 -32 210 -4 116 12 221 51 344 6 18 15 8 45 -49z m-1268
-636 c78 -100 207 -204 357 -287 151 -83 333 -132 513 -138 37 -1 64 -6 60
-10 -29 -29 -308 -223 -353 -246 -51 -26 -63 -28 -165 -27 -117 1 -197 18
-295 62 -48 22 -126 67 -140 82 -3 3 -21 17 -40 31 -52 39 -138 128 -173 179
-17 25 -34 47 -37 50 -30 22 -156 336 -139 342 5 2 93 3 195 2 l187 0 30 -40z
m3324 37 c6 -3 -62 -184 -93 -244 -66 -132 -171 -260 -269 -333 -22 -16 -42
-32 -45 -35 -3 -3 -21 -14 -40 -24 -19 -9 -42 -23 -50 -30 -8 -8 -18 -14 -23
-14 -4 -1 -23 -8 -44 -16 -82 -34 -161 -48 -288 -49 -80 -1 -96 2 -145 27 -41
21 -330 224 -357 251 -2 2 16 3 39 4 143 1 310 36 443 93 17 7 32 13 35 14 3
0 25 11 50 24 105 55 221 142 315 236 l100 100 185 -1 c102 -1 186 -2 187 -3z
m45 -664 l-3 -98 -27 5 c-15 3 -63 8 -107 11 -44 4 -82 8 -85 10 -3 1 -27 6
-54 9 -27 4 -53 9 -58 12 -4 3 9 19 30 37 100 86 182 183 246 288 25 42 47 83
48 90 5 31 13 -273 10 -364z m-3806 321 c35 -69 142 -206 218 -280 45 -43 84
-78 88 -78 5 0 8 -4 8 -9 0 -5 -19 -12 -42 -16 -24 -4 -52 -9 -62 -11 -17 -3
-147 -14 -206 -18 l-25 -1 -1 223 c-1 122 0 222 2 222 2 0 11 -15 20 -32z
m1718 -90 c-126 -247 -333 -409 -604 -472 -83 -20 -106 -21 -88 -3 14 13 349
257 408 297 19 13 40 28 45 35 6 6 60 44 120 85 61 41 112 78 113 82 2 5 8 8
13 8 5 0 2 -15 -7 -32z m566 -134 c124 -90 256 -186 293 -212 62 -43 175 -126
187 -139 5 -5 -29 0 -91 12 -159 31 -331 127 -457 255 -52 54 -142 178 -142
197 0 7 -4 13 -9 13 -5 0 -11 9 -14 20 -3 11 -2 20 1 20 4 0 108 -75 232 -166z
m-475 -136 c-1 -68 -6 -141 -13 -164 -38 -132 -162 -290 -297 -379 -132 -87
-313 -143 -461 -143 -99 0 -150 10 -226 45 -59 27 -64 32 -49 49 5 5 20 29 34
54 60 109 79 140 87 145 8 5 18 7 140 24 189 28 386 108 520 210 81 61 240
227 240 249 0 6 20 32 25 32 0 0 0 -55 0 -122z m242 16 c29 -34 79 -85 110
-113 54 -48 199 -154 205 -150 2 1 21 -7 43 -18 98 -50 263 -97 380 -109 85
-8 106 -11 109 -15 12 -16 116 -211 116 -218 0 -16 -66 -48 -134 -65 -76 -20
-209 -20 -290 -1 -287 67 -505 245 -598 487 -15 41 -21 83 -23 183 -4 125 -3
129 13 105 9 -13 41 -52 69 -86z m-1486 -158 c72 -24 92 -28 174 -40 91 -14
105 -17 105 -25 0 -10 -142 -106 -205 -139 -63 -33 -171 -80 -191 -83 -18 -3
-326 192 -351 222 -9 11 -6 14 15 15 47 1 161 16 217 29 11 2 25 5 30 6 6 1
21 6 35 11 14 5 36 12 50 15 13 2 27 6 29 9 7 7 15 5 92 -20z m2779 9 c24 -8
57 -18 74 -21 17 -2 38 -7 46 -9 8 -2 33 -7 55 -10 23 -3 52 -7 65 -10 14 -3
44 -6 68 -7 24 -1 44 -4 47 -7 2 -4 -28 -26 -66 -51 -39 -25 -76 -51 -84 -57
-7 -7 -16 -13 -20 -13 -4 0 -26 -13 -50 -30 -24 -16 -48 -30 -54 -30 -6 0 -11
-4 -11 -10 0 -5 -6 -10 -13 -10 -8 0 -22 -9 -31 -19 -22 -24 -42 -19 -178 49
-137 68 -177 93 -229 140 l-44 39 56 1 c56 0 232 39 266 59 25 15 54 13 103
-4z m-1400 -279 c50 -74 211 -246 232 -246 5 0 7 -16 4 -37 -29 -189 -95 -324
-245 -501 l-45 -54 -35 39 c-125 133 -218 313 -251 481 l-12 61 38 32 c79 67
151 148 203 228 30 45 55 80 56 79 2 -2 27 -38 55 -82z m-410 -577 c23 -52 44
-100 47 -107 3 -7 -18 1 -46 18 -29 16 -53 30 -55 30 -3 0 -108 60 -156 90 -8
5 -53 30 -100 56 -125 69 -124 65 -21 86 50 10 126 31 168 46 l78 28 22 -77
c12 -42 41 -119 63 -170z m890 212 c50 -17 124 -35 165 -42 41 -7 75 -15 75
-18 0 -4 -26 -20 -58 -36 -31 -17 -135 -75 -230 -129 -96 -54 -175 -96 -177
-94 -2 2 13 37 34 79 20 42 50 120 67 173 16 53 30 96 31 96 1 0 43 -13 93
-29z"/>
<path d="M1306 1923 c-48 -48 -22 -124 48 -137 22 -4 35 1 57 24 37 37 39 81
4 115 -32 33 -75 33 -109 -2z"/>
<path d="M3755 1925 c-62 -61 6 -169 83 -132 56 26 66 94 20 137 -30 27 -73
26 -103 -5z"/>
<path d="M2529 861 c-24 -25 -28 -36 -24 -63 8 -46 36 -71 79 -71 45 0 74 25
82 71 6 31 3 39 -25 64 -40 36 -75 36 -112 -1z"/>
</g>
</svg>
